<svg width="0" height="0" class="hidden">
  <symbol viewBox="0 0 80 80" fill="none" xmlns="http://www.w3.org/2000/svg"
    id="logo">
    <path
      d="M53.333 80H26.666V26.666H53.333C67.9999 26.666 80 38.6662 80 53.333C80 67.9999 67.9999 80 53.333 80Z"
      fill="#FF4081" />
    <path d="M33.3338 26.667L53.334 53.334H0V0H53.334L33.3338 26.667Z" fill="#651FFF" />
  </symbol>

  <symbol width="10" height="8" viewBox="0 0 10 8" fill="none" stroke="currentColor" id="check"
    xmlns="http://www.w3.org/2000/svg">
    <path d="M8.33366 1.5L3.75033 6.5L1.66699 4.22727" stroke-width="2"
      stroke-linecap="round" stroke-linejoin="round" />
  </symbol>

  <symbol width="24" height="24" viewBox="0 0 24 24" fill="none" stroke="currentColor" id="cross"
    xmlns="http://www.w3.org/2000/svg">
    <path d="M16 8L8 16" stroke-linecap="round" stroke-linejoin="round" />
    <path d="M8 8L16 16" stroke-linecap="round" stroke-linejoin="round" />
  </symbol>

  <symbol width="24" height="24" viewBox="0 0 24 24" id="eye-slash"
    xmlns="http://www.w3.org/2000/svg">
    <path fill-rule="evenodd" clip-rule="evenodd"
      d="M15.9202 12.7988C15.9725 12.5407 16 12.2736 16 12C16 9.79086 14.2091 8 12 8C11.7264 8 11.4593 8.02746 11.2012 8.07977L12.1239 9.00251C13.6822 9.06583 14.9342 10.3178 14.9975 11.8761L15.9202 12.7988ZM9.39311 10.5143C9.14295 10.9523 9 11.4595 9 12C9 13.6569 10.3431 15 12 15C12.5405 15 13.0477 14.857 13.4857 14.6069L14.212 15.3332C13.5784 15.7545 12.8179 16 12 16C9.79086 16 8 14.2091 8 12C8 11.1821 8.24547 10.4216 8.66676 9.78799L9.39311 10.5143Z"
      fill="currentColor" />
    <path fill-rule="evenodd" clip-rule="evenodd"
      d="M18.5592 15.4985C19.4006 14.7404 20.0874 13.9744 20.574 13.3836L20.6328 13.3124C20.9633 12.913 21.2703 12.5421 21.2703 12C21.2703 11.4579 20.9633 11.087 20.6328 10.6876L20.574 10.6164C19.849 9.73623 18.6799 8.46727 17.2169 7.41472C15.7579 6.365 13.9639 5.5 12 5.5C10.9973 5.5 10.0388 5.72551 9.14664 6.08597L9.92366 6.86299C10.594 6.63362 11.2896 6.5 12 6.5C13.6718 6.5 15.2619 7.24007 16.6329 8.22646C18 9.21001 19.107 10.4082 19.8021 11.2522C20.2265 11.7674 20.2703 11.8565 20.2703 12C20.2703 12.1435 20.2265 12.2326 19.8021 12.7478C19.3276 13.3239 18.6611 14.0651 17.8511 14.7904L18.5592 15.4985ZM8.46349 7.52414C8.08516 7.73646 7.71894 7.97335 7.36714 8.22646C6.00006 9.21001 4.89306 10.4082 4.19792 11.2522C3.77356 11.7674 3.72974 11.8565 3.72974 12C3.72974 12.1435 3.77356 12.2326 4.19792 12.7478C4.89306 13.5918 6.00006 14.79 7.36714 15.7735C8.73816 16.7599 10.3282 17.5 12 17.5C13.6718 17.5 15.2619 16.7599 16.6329 15.7735C16.6484 15.7624 16.6639 15.7512 16.6793 15.74L17.3946 16.4553C17.3359 16.499 17.2766 16.5423 17.2169 16.5853C15.7579 17.635 13.9639 18.5 12 18.5C10.0361 18.5 8.24216 17.635 6.78312 16.5853C5.32014 15.5327 4.15099 14.2638 3.42604 13.3836L3.36723 13.3124C3.0367 12.913 2.72974 12.5421 2.72974 12C2.72974 11.4579 3.03671 11.087 3.36723 10.6876L3.42604 10.6164C4.15099 9.73623 5.32014 8.46727 6.78312 7.41472C7.08537 7.19726 7.402 6.98773 7.73153 6.79218L8.46349 7.52414Z"
      fill="currentColor" />
    <path d="M5 2L21 18" stroke="currentColor" />
  </symbol>

  <symbol width="24" height="24" viewBox="0 0 24 24" fill="none" stroke="currentColor" id="eye"
    xmlns="http://www.w3.org/2000/svg">
    <circle cx="12" cy="12" r="3.5" />
    <path
      d="M20.188 10.9343C20.5762 11.4056 20.7703 11.6412 20.7703 12C20.7703 12.3588 20.5762 12.5944 20.188 13.0657C18.7679 14.7899 15.6357 18 12 18C8.36427 18 5.23206 14.7899 3.81197 13.0657C3.42381 12.5944 3.22973 12.3588 3.22973 12C3.22973 11.6412 3.42381 11.4056 3.81197 10.9343C5.23206 9.21014 8.36427 6 12 6C15.6357 6 18.7679 9.21014 20.188 10.9343Z"
    />
  </symbol>

  <symbol width="24" height="24" viewBox="0 0 24 24" fill="none" stroke="currentColor" id="home"
    xmlns="http://www.w3.org/2000/svg"
  >
    <path
      d="M5 11.784C5 10.4262 5 9.74733 5.27446 9.15059C5.54892 8.55385 6.06437 8.11204 7.09525 7.22842L8.09525 6.37128C9.95857 4.77415 10.8902 3.97559 12 3.97559C13.1098 3.97559 14.0414 4.77415 15.9047 6.37128L16.9047 7.22842C17.9356 8.11204 18.4511 8.55385 18.7255 9.15059C19 9.74733 19 10.4262 19 11.784V16.0244C19 17.91 19 18.8528 18.4142 19.4386C17.8284 20.0244 16.8856 20.0244 15 20.0244H9C7.11438 20.0244 6.17157 20.0244 5.58579 19.4386C5 18.8528 5 17.91 5 16.0244V11.784Z"
    />
    <path
      d="M14.5 20.0244V15.0244C14.5 14.4721 14.0523 14.0244 13.5 14.0244H10.5C9.94772 14.0244 9.5 14.4721 9.5 15.0244V20.0244"
      stroke-linecap="round" stroke-linejoin="round" />
  </symbol>

  <symbol width="24" height="24" viewBox="0 0 24 24" fill="none" id="group"
    xmlns="http://www.w3.org/2000/svg">
    <circle cx="12" cy="8" r="2.5" stroke="currentColor" stroke-linecap="round" />
    <circle cx="6.5" cy="8.5" r="2" stroke="currentColor" stroke-linecap="round" />
    <circle cx="17.5" cy="8.5" r="2" stroke="currentColor" stroke-linecap="round" />
    <path
      d="M12 12.5C16.0802 12.5 17.1335 15.8022 17.4054 17.507C17.4924 18.0524 17.0523 18.5 16.5 18.5H7.5C6.94771 18.5 6.50763 18.0524 6.59461 17.507C6.86649 15.8022 7.91976 12.5 12 12.5Z"
      stroke="currentColor" stroke-linecap="round" />
    <path
      d="M21.2965 15.4162L20.8115 15.5377L21.2965 15.4162ZM14.6722 13.1176L14.257 12.839L13.9508 13.2955L14.4341 13.5572L14.6722 13.1176ZM17.1813 16.5L16.701 16.639L16.8055 17H17.1813V16.5ZM17.5 12C18.5277 12 19.2495 12.5027 19.7783 13.2069C20.3177 13.9253 20.6344 14.8306 20.8115 15.5377L21.7816 15.2948C21.5904 14.5315 21.2328 13.4787 20.578 12.6065C19.9126 11.7203 18.9202 11 17.5 11V12ZM15.0874 13.3962C15.6272 12.5917 16.3865 12 17.5 12V11C15.9532 11 14.9188 11.8526 14.257 12.839L15.0874 13.3962ZM14.4341 13.5572C15.7286 14.2585 16.3778 15.5218 16.701 16.639L17.6616 16.361C17.3026 15.1203 16.5395 13.5604 14.9103 12.6779L14.4341 13.5572ZM20.395 16H17.1813V17H20.395V16ZM20.8115 15.5377C20.8653 15.7526 20.7075 16 20.395 16V17C21.2657 17 22.0152 16.2277 21.7816 15.2948L20.8115 15.5377Z"
      fill="currentColor" />
    <path
      d="M2.6976 15.4162L3.18263 15.5377L2.6976 15.4162ZM9.32193 13.1176L9.73713 12.839L10.0434 13.2955L9.56007 13.5572L9.32193 13.1176ZM6.81283 16.5L7.29314 16.639L7.18868 17H6.81283V16.5ZM6.49414 12C5.46641 12 4.74463 12.5027 4.21582 13.2069C3.67645 13.9253 3.35971 14.8306 3.18263 15.5377L2.21258 15.2948C2.40372 14.5315 2.76129 13.4787 3.41615 12.6065C4.08158 11.7203 5.07395 11 6.49414 11V12ZM8.90673 13.3962C8.36696 12.5917 7.60763 12 6.49414 12V11C8.04096 11 9.07534 11.8526 9.73713 12.839L8.90673 13.3962ZM9.56007 13.5572C8.2655 14.2585 7.61633 15.5218 7.29314 16.639L6.33253 16.361C6.6915 15.1203 7.4546 13.5604 9.08379 12.6779L9.56007 13.5572ZM3.59915 16H6.81283V17H3.59915V16ZM3.18263 15.5377C3.12882 15.7526 3.28665 16 3.59915 16V17C2.72842 17 1.97895 16.2277 2.21258 15.2948L3.18263 15.5377Z"
      fill="currentColor" />
  </symbol>

  <symbol width="24" height="24" viewBox="0 0 24 24" fill="none" stroke="currentColor" id="user"
    xmlns="http://www.w3.org/2000/svg">
    <path
      d="M19.5 20.5C19.5 19.9541 18.9233 18.868 18.2364 17.7682C16.9101 15.6443 14.4741 14.5 11.9701 14.5V14.5C9.47046 14.5 7.03385 15.6384 5.72347 17.7671C5.05625 18.851 4.5 19.9266 4.5 20.5"
      stroke-linecap="round" />
    <circle cx="12" cy="8" r="4" stroke-linecap="round" />
  </symbol>

  <symbol width="24" height="24" viewBox="0 0 24 24" fill="none" stroke="currentColor" id="search"
    xmlns="http://www.w3.org/2000/svg">
    <circle cx="11" cy="11" r="6" />
    <path d="M20 20L17 17" stroke-linecap="round" />
  </symbol>

  <symbol width="24" height="24" viewBox="0 0 24 24" fill="none" stroke="currentColor"
    id="burger-mobile"
    xmlns="http://www.w3.org/2000/svg">
    <path d="M5 7H19" stroke-linecap="round" />
    <path d="M5 12H15" stroke-linecap="round" />
    <path d="M5 17H11" stroke-linecap="round" />
  </symbol>

  <symbol width="24" height="24" viewBox="0 0 24 24" fill="none" stroke="currentColor" id="burger"
    xmlns="http://www.w3.org/2000/svg">
    <path d="M5 6H19" stroke-linecap="round" />
    <path d="M7.19461 9.80529L5 11.9998M5 11.9998L7.19461 14.1946M5 11.9998H18.9177"
      stroke-linecap="round" stroke-linejoin="round" />
    <path d="M5 18H19" stroke-linecap="round" />
  </symbol>

  <symbol width="24" height="24" viewBox="0 0 24 24" fill="none" stroke="currentColor" id="sign-out"
    xmlns="http://www.w3.org/2000/svg">
    <path d="M6 7L2 12M2 12L6 17M2 12H11" stroke-linecap="round"
      stroke-linejoin="round" />
    <path
      d="M10 8.13193V7.38851C10 5.77017 10 4.961 10.474 4.4015C10.9479 3.84201 11.7461 3.70899 13.3424 3.44293L15.0136 3.1644C18.2567 2.62388 19.8782 2.35363 20.9391 3.25232C22 4.15102 22 5.79493 22 9.08276V14.9172C22 18.2051 22 19.849 20.9391 20.7477C19.8782 21.6464 18.2567 21.3761 15.0136 20.8356L13.3424 20.5571C11.7461 20.291 10.9479 20.158 10.474 19.5985C10 19.039 10 18.2298 10 16.6115V16.066"
      stroke-linecap="round" stroke-linejoin="round" />
  </symbol>

  <symbol width="24" height="24" viewBox="0 0 24 24" fill="currentColor" id="meatballs"
    xmlns="http://www.w3.org/2000/svg">
    <rect x="14" y="2" width="4" height="4" rx="2" transform="rotate(90 14 2)" />
    <rect x="14" y="10" width="4" height="4" rx="2" transform="rotate(90 14 10)" />
    <rect x="14" y="18" width="4" height="4" rx="2" transform="rotate(90 14 18)" />
  </symbol>

  <symbol width="24" height="24" viewBox="0 0 24 24" fill="none" stroke="currentColor" id="import"
    xmlns="http://www.w3.org/2000/svg">
    <path d="M7 9L12 14M12 14L17 9M12 14L12 5" stroke-linecap="round" />
    <path d="M5 16L5 17C5 18.1046 5.89543 19 7 19L17 19C18.1046 19 19 18.1046 19 17V16"
      stroke-linecap="round" />
  </symbol>

  <symbol width="24" height="24" viewBox="0 0 24 24" fill="none" stroke="currentColor" id="pin"
    xmlns="http://www.w3.org/2000/svg">
    <path
      d="M14.6358 3.90949C15.2888 3.47412 15.6153 3.25643 15.9711 3.29166C16.3269 3.32689 16.6044 3.60439 17.1594 4.15938L19.8406 6.84062C20.3956 7.39561 20.6731 7.67311 20.7083 8.02888C20.7436 8.38465 20.5259 8.71118 20.0905 9.36424L18.4419 11.8372C17.88 12.68 17.5991 13.1013 17.3749 13.5511C17.2086 13.8845 17.0659 14.2292 16.9476 14.5825C16.7882 15.0591 16.6889 15.5557 16.4902 16.5489L16.2992 17.5038C16.2986 17.5072 16.2982 17.5089 16.298 17.5101C16.1556 18.213 15.3414 18.5419 14.7508 18.1351C14.7497 18.1344 14.7483 18.1334 14.7455 18.1315V18.1315C14.7322 18.1223 14.7255 18.1177 14.7189 18.1131C11.2692 15.7225 8.27754 12.7308 5.88691 9.28108C5.88233 9.27448 5.87772 9.26782 5.86851 9.25451V9.25451C5.86655 9.25169 5.86558 9.25028 5.86486 9.24924C5.45815 8.65858 5.78704 7.84444 6.4899 7.70202C6.49113 7.70177 6.49282 7.70144 6.49618 7.70076L7.45114 7.50977C8.44433 7.31113 8.94092 7.21182 9.4175 7.05236C9.77083 6.93415 10.1155 6.79139 10.4489 6.62514C10.8987 6.40089 11.32 6.11998 12.1628 5.55815L14.6358 3.90949Z"
    />
    <path d="M5 19L9.5 14.5" stroke-linecap="round" />
  </symbol>

  <symbol width="24" height="24" viewBox="0 0 24 24" fill="none" stroke="currentColor" id="chevron"
    xmlns="http://www.w3.org/2000/svg">
    <path d="M14 8L10 12L14 16" stroke-linecap="round" stroke-linejoin="round" />
  </symbol>

  <symbol width="24" height="24" viewBox="0 0 24 24" fill="currentColor" id="error" xmlns="http://www.w3.org/2000/svg">
    <g clip-path="url(#clip0_927_577)">
      <path
        d="M11.9992 24C11.2515 24 10.4926 23.8103 9.82297 23.4197L3.19382 19.5917C1.85459 18.8105 1.01758 17.3708 1.01758 15.8196V8.186C1.01758 6.63474 1.85459 5.19507 3.19382 4.41386L9.82297 0.58591C11.1622 -0.195303 12.8251 -0.195303 14.1754 0.58591L20.8046 4.41386C22.1438 5.19507 22.9808 6.63474 22.9808 8.186V15.8196C22.9808 17.3708 22.1438 18.8105 20.8046 19.5917L14.1754 23.4197C13.5058 23.8103 12.7469 24 11.9992 24Z"
      />
      <circle cx="12" cy="16.75" r="0.75" fill="white" />
      <line x1="12" y1="7.25" x2="12" y2="13.75" stroke="white" stroke-width="1.5"
        stroke-linecap="round" />
    </g>
    <defs>
      <clipPath id="clip0_927_577">
        <rect width="24" height="24" fill="white" />
      </clipPath>
    </defs>
  </symbol>

</svg>